#define cursor_angle3_width 16
#define cursor_angle3_height 16
#define cursor_angle3_x_hot 1
#define cursor_angle3_y_hot 1
static unsigned char cursor_angle3_bits[] = {
   0x00, 0x00, 0x02, 0x00, 0x06, 0x18, 0x0e, 0x24, 0x1e, 0x24, 0x1e, 0x1e,
   0x06, 0x03, 0x80, 0x01, 0xc0, 0x01, 0x60, 0x03, 0x30, 0x02, 0x18, 0x06,
   0xfc, 0x7f, 0xfc, 0x7f, 0x00, 0x00, 0x00, 0x00 };
