#define cursor_add_point_mask_width 16
#define cursor_add_point_mask_height 16
#define cursor_add_point_mask_x_hot 0
#define cursor_add_point_mask_y_hot 0
static unsigned char cursor_add_point_mask_bits[] = {
   0x0e, 0x00, 0x0e, 0x00, 0x1e, 0x00, 0x3e, 0x00, 0x7e, 0x00, 0xfe, 0x00,
   0xfe, 0x01, 0xde, 0x03, 0x9e, 0x07, 0x1e, 0x3f, 0x1e, 0x3f, 0x1e, 0xff,
   0x1e, 0xfe, 0x1e, 0xfe, 0x00, 0x38, 0x00, 0x30 };
