#define cursor_add_point_width 16
#define cursor_add_point_height 16
#define cursor_add_point_x_hot 0
#define cursor_add_point_y_hot 0
static unsigned char cursor_add_point_bits[] = {
   0x00, 0x00, 0x04, 0x00, 0x0c, 0x00, 0x1c, 0x00, 0x3c, 0x00, 0x6c, 0x00,
   0xcc, 0x00, 0x8c, 0x01, 0x0c, 0x03, 0x0c, 0x06, 0x0c, 0x10, 0x0c, 0x10,
   0x0c, 0x7c, 0x00, 0x10, 0x00, 0x10, 0x00, 0x00 };
