#define cursor_angle4_width 16
#define cursor_angle4_height 16
#define cursor_angle4_x_hot 1
#define cursor_angle4_y_hot 1
static unsigned char cursor_angle4_bits[] = {
   0x00, 0x00, 0x02, 0x00, 0x06, 0x00, 0x0e, 0x00, 0x1e, 0x0c, 0x1e, 0x06,
   0x06, 0x03, 0x80, 0x01, 0xc0, 0x01, 0x60, 0x03, 0x30, 0x02, 0x18, 0x36,
   0xfc, 0x4f, 0xfc, 0x4f, 0x00, 0x30, 0x00, 0x00 };
