#define cursor_angle2_mask_width 16
#define cursor_angle2_mask_height 16
#define cursor_angle2_mask_x_hot 1
#define cursor_angle2_mask_y_hot 1
static unsigned char cursor_angle2_mask_bits[] = {
   0x03, 0x00, 0x07, 0x00, 0x0f, 0x00, 0x1f, 0x0c, 0x3f, 0x1e, 0x3f, 0x0f,
   0x9f, 0x07, 0xc6, 0x03, 0xe0, 0x03, 0xf0, 0x07, 0x7c, 0x07, 0x3e, 0x7f,
   0xff, 0xff, 0xff, 0xff, 0xfe, 0x7f, 0x0c, 0x00 };
