#define cursor_angle3_mask_width 16
#define cursor_angle3_mask_height 16
#define cursor_angle3_mask_x_hot 1
#define cursor_angle3_mask_y_hot 1
static unsigned char cursor_angle3_mask_bits[] = {
   0x03, 0x00, 0x07, 0x18, 0x0f, 0x3c, 0x1f, 0x7e, 0x3f, 0x7e, 0x3f, 0x3f,
   0x9f, 0x1f, 0xc6, 0x03, 0xe0, 0x03, 0xf0, 0x07, 0x78, 0x07, 0x3c, 0x7f,
   0xfe, 0xff, 0xfe, 0xff, 0xfc, 0x7f, 0x00, 0x00 };
